<svg xmlns="http://www.w3.org/2000/svg" width="46.04" height="46" viewBox="0 0 46.04 46">
  <g id="Grupo_39" data-name="Grupo 39" transform="translate(-152.937 -234.849)">
    <path id="Trazado_3" data-name="Trazado 3" d="M165.8,276.418l1.15-1.151-.577-.576a18.67,18.67,0,0,1,26.4-26.4l.575.576,1.153-1.151,3.334-3.335,1.136-1.136v-.032l-.56-.56a26.642,26.642,0,0,0-37.677,37.676l.52.521h.112l1.1-1.1Z" fill="#ff4500"/>
    <path id="Trazado_4" data-name="Trazado 4" d="M195.381,263.824a13.472,13.472,0,0,0-9.524,22.994l.578.576,1.15-1.15L204.333,269.5l1.15-1.15-.576-.576A13.386,13.386,0,0,0,195.381,263.824Z" transform="translate(-15.805 -15.803)" fill="#ff4500"/>
    <path id="Trazado_5" data-name="Trazado 5" d="M239.746,309.584l-12.06,12.026h12.06Z" transform="translate(-40.769 -40.761)" fill="#ff4500"/>
    <path id="Trazado_6" data-name="Trazado 6" d="M216.846,267.573,185.7,298.7h11.7l19.45-19.447Z" transform="translate(-17.87 -17.848)" fill="#ff4500"/>
  </g>
</svg>
